# xmcd
#
# Track frame offsets: 
#        150
#        11839
#        25911
#        39121
#        50779
#        62000
#        73920
#        87237
#        102993
#        117308
#        133771
#        148759
#        162952
#        178866
#        194362
#        209701
#        224838
#        239099
#        253450
#        266860
#
# Disc length: 3747 seconds
#
# Revision: 0
# Processed by: cddbd v1.5.1PL0 Copyright (c) Steve Scherf et al.
# Submitted via: ExactAudioCopy v0.95a5
#
DISCID=4e0ea114
DTITLE=Louis Armstrong - When you're smiling
DYEAR=1900
DGENRE=Blues
TTITLE0=Alexandra's ragtime band
TTITLE1=Once in a while
TTITLE2=On the sunny side of the street
TTITLE3=It's wonderful
TTITLE4=Love walked in
TTITLE5=Jeepers creepers
TTITLE6=Save it pretty Mama
TTITLE7=When you're smiling
TTITLE8=I'm a ding dong daddy
TTITLE9=If I could be with you one hour tonight
TTITLE10=Body and soul
TTITLE11=You're driving me crazy
TTITLE12=The peanut vendor
TTITLE13=When it's sleepy time down south
TTITLE14=Shine
TTITLE15=Just a gigolo
TTITLE16=Walkin' my baby back home
TTITLE17=Surrender dear
TTITLE18=Hobo, you can't ride this train
TTITLE19=Public melody number one
EXTD=
EXTT0=
EXTT1=
EXTT2=
EXTT3=
EXTT4=
EXTT5=
EXTT6=
EXTT7=
EXTT8=
EXTT9=
EXTT10=
EXTT11=
EXTT12=
EXTT13=
EXTT14=
EXTT15=
EXTT16=
EXTT17=
EXTT18=
EXTT19=
PLAYORDER=
